<svg version="1.1" id="Layer_1" xmlns="http://www.w3.org/2000/svg" xmlns:xlink="http://www.w3.org/1999/xlink" x="0px" y="0px"
	 width="100%" viewBox="0 0 272 231" enable-background="new 0 0 272 231" xml:space="preserve">
<path fill="#CEC9E1" opacity="1.000000" stroke="none"
	d="
M120.531342,1.000000
	C120.985779,1.200164 120.971558,1.400328 120.441223,1.839226
	C95.320389,2.101433 70.715660,2.124906 46.110931,2.148379
	C46.092243,1.957002 46.073551,1.765625 46.027431,1.287124
	C70.687561,1.000000 95.375122,1.000000 120.531342,1.000000
z"/>
<path fill="#FCE3DA" opacity="1.000000" stroke="none"
	d="
M152.939529,1.859521
	C152.939529,1.859521 152.964935,1.429421 152.982468,1.214710
	C177.687561,1.000000 202.375122,1.000000 227.531342,1.000000
	C227.989166,1.190234 227.978333,1.380469 227.734543,1.852998
	C227.501572,2.135293 227.088455,2.201818 226.616577,2.132330
	C201.742966,1.995069 177.341248,1.927295 152.939529,1.859521
z"/>
<path fill="#F58E64" opacity="1.000000" stroke="none"
	d="
M227.088455,2.201816
	C227.088455,2.201818 227.501572,2.135293 227.710663,2.137809
	C239.055908,21.436020 250.052109,40.814857 261.430786,59.966454
	C264.131348,64.511833 264.338837,67.838173 261.513062,72.550774
	C250.064331,91.644028 239.138779,111.050980 227.552277,131.154068
	C215.158936,109.664185 203.101791,88.757271 191.027100,67.145393
	C197.338364,55.144104 203.658401,43.842854 209.998581,32.552902
	C215.683701,22.429411 221.390961,12.318354 227.088455,2.201816
z"/>
<path fill="#64C4A8" opacity="1.000000" stroke="none"
	d="
M137.974426,159.840820
	C150.172348,138.546188 162.370255,117.251572 175.019333,95.169342
	C176.484909,97.501884 177.541351,99.073044 178.488464,100.707558
	C188.902695,118.680489 199.375824,136.620453 209.582108,154.710892
	C210.582458,156.484009 210.830826,159.717072 209.880646,161.397324
	C198.266617,181.934967 186.363129,202.308914 173.866196,222.859848
	C172.260361,221.903900 171.106720,220.934235 170.418991,219.704102
	C163.539062,207.397827 156.671387,195.083725 149.934830,182.698624
	C145.826477,175.145477 141.953247,167.464432 137.974426,159.840820
z"/>
<path fill="#F8A98C" opacity="1.000000" stroke="none"
	d="
M226.616577,2.132329
	C221.390961,12.318354 215.683701,22.429411 209.998581,32.552902
	C203.658401,43.842854 197.338364,55.144104 190.934723,66.812042
	C188.932114,66.852997 187.005234,66.241211 185.076370,66.234871
	C164.099838,66.165840 143.122986,66.191696 122.146217,66.191689
	C120.332550,66.191689 118.518883,66.191689 115.387909,66.191689
	C128.047012,44.343670 140.228073,23.320675 152.674332,2.078601
	C177.341248,1.927295 201.742966,1.995069 226.616577,2.132329
z"/>
<path fill="#6557A2" opacity="1.000000" stroke="none"
	d="
M45.971233,2.461516
	C70.715660,2.124906 95.320389,2.101433 120.378922,2.133708
	C108.688316,23.274916 96.543915,44.360378 83.720703,65.721184
	C60.402206,65.998917 37.762451,66.023315 15.122941,65.959702
	C13.407935,65.954887 11.694687,65.324738 9.980621,64.985268
	C21.930925,44.248394 33.881229,23.511524 45.971233,2.461516
z"/>
<path fill="#1DB588" opacity="1.000000" stroke="none"
	d="
M137.507935,159.859100
	C141.953247,167.464432 145.826477,175.145477 149.934830,182.698624
	C156.671387,195.083725 163.539062,207.397827 170.418991,219.704102
	C171.106720,220.934235 172.260361,221.903900 173.548325,222.993835
	C172.524368,223.565292 171.152222,224.629364 169.775040,224.635895
	C147.784912,224.740128 125.793739,224.761780 103.804276,224.601334
	C102.187225,224.589539 99.856102,223.467026 99.079056,222.143417
	C87.285858,202.055237 75.695702,181.847824 64.074638,161.658752
	C63.929291,161.406235 64.000053,161.029343 63.891266,159.877365
	C88.328522,159.877365 112.684982,159.877365 137.507935,159.859100
z"/>
<path fill="#9182BC" opacity="1.000000" stroke="none"
	d="
M83.957581,67.010948
	C96.242828,88.112297 108.528069,109.213646 121.148911,130.891418
	C118.825317,131.002487 117.385574,131.130600 115.945778,131.131241
	C94.280258,131.140884 72.614151,131.054169 50.949791,131.211700
	C47.482635,131.236908 45.646790,130.106003 43.946884,127.098656
	C32.722889,107.242043 21.282562,87.507713 10.323404,67.372223
	C35.141918,67.010918 59.549751,67.010933 83.957581,67.010948
z"/>
<path fill="#A399C7" opacity="1.000000" stroke="none"
	d="
M83.972092,66.754028
	C59.549751,67.010933 35.141918,67.010918 10.243355,67.019669
	C9.686771,66.445976 9.620922,65.863533 9.767847,65.133179
	C11.694687,65.324738 13.407935,65.954887 15.122941,65.959702
	C37.762451,66.023315 60.402206,65.998917 83.508728,65.989555
	C83.979233,66.154091 83.982910,66.325600 83.972092,66.754028
z"/>
</svg>
