<svg xmlns="http://www.w3.org/2000/svg" viewBox="0 0 100 100" width="400" height="400"><circle cx="50" cy="50" r="43" fill="none" stroke="#232D5A" stroke-width="3.5"/><circle cx="50" cy="50" r="35.5" fill="none" stroke="#232D5A" stroke-width="2.4"/><line x1="86.20" y1="50.00" x2="91.20" y2="50.00" stroke="#232D5A" stroke-width="1.5"/><line x1="84.97" y1="59.37" x2="89.80" y2="60.66" stroke="#232D5A" stroke-width="1.5"/><line x1="81.35" y1="68.10" x2="85.68" y2="70.60" stroke="#232D5A" stroke-width="1.5"/><line x1="75.60" y1="75.60" x2="79.13" y2="79.13" stroke="#232D5A" stroke-width="1.5"/><line x1="68.10" y1="81.35" x2="70.60" y2="85.68" stroke="#232D5A" stroke-width="1.5"/><line x1="59.37" y1="84.97" x2="60.66" y2="89.80" stroke="#232D5A" stroke-width="1.5"/><line x1="50.00" y1="86.20" x2="50.00" y2="91.20" stroke="#232D5A" stroke-width="1.5"/><line x1="40.63" y1="84.97" x2="39.34" y2="89.80" stroke="#232D5A" stroke-width="1.5"/><line x1="31.90" y1="81.35" x2="29.40" y2="85.68" stroke="#232D5A" stroke-width="1.5"/><line x1="24.40" y1="75.60" x2="20.87" y2="79.13" stroke="#232D5A" stroke-width="1.5"/><line x1="18.65" y1="68.10" x2="14.32" y2="70.60" stroke="#232D5A" stroke-width="1.5"/><line x1="15.03" y1="59.37" x2="10.20" y2="60.66" stroke="#232D5A" stroke-width="1.5"/><line x1="13.80" y1="50.00" x2="8.80" y2="50.00" stroke="#232D5A" stroke-width="1.5"/><line x1="15.03" y1="40.63" x2="10.20" y2="39.34" stroke="#232D5A" stroke-width="1.5"/><line x1="18.65" y1="31.90" x2="14.32" y2="29.40" stroke="#232D5A" stroke-width="1.5"/><line x1="24.40" y1="24.40" x2="20.87" y2="20.87" stroke="#232D5A" stroke-width="1.5"/><line x1="31.90" y1="18.65" x2="29.40" y2="14.32" stroke="#232D5A" stroke-width="1.5"/><line x1="40.63" y1="15.03" x2="39.34" y2="10.20" stroke="#232D5A" stroke-width="1.5"/><line x1="50.00" y1="13.80" x2="50.00" y2="8.80" stroke="#232D5A" stroke-width="1.5"/><line x1="59.37" y1="15.03" x2="60.66" y2="10.20" stroke="#232D5A" stroke-width="1.5"/><line x1="68.10" y1="18.65" x2="70.60" y2="14.32" stroke="#232D5A" stroke-width="1.5"/><line x1="75.60" y1="24.40" x2="79.13" y2="20.87" stroke="#232D5A" stroke-width="1.5"/><line x1="81.35" y1="31.90" x2="85.68" y2="29.40" stroke="#232D5A" stroke-width="1.5"/><line x1="84.97" y1="40.63" x2="89.80" y2="39.34" stroke="#232D5A" stroke-width="1.5"/><rect x="34" y="40.5" width="32" height="4.6" rx="2.3" fill="#232D5A"/><rect x="34" y="47.7" width="32" height="4.6" rx="2.3" fill="#232D5A"/><rect x="34" y="54.9" width="32" height="4.6" rx="2.3" fill="#232D5A"/></svg>