<svg xmlns="http://www.w3.org/2000/svg" viewBox="0 0 440 132" width="440" height="132"><rect width="440" height="132" fill="#1B2247"/><g transform="translate(16,18) scale(0.96)"><circle cx="50" cy="50" r="43" fill="none" stroke="#F5F5F0" stroke-width="3.5"/><circle cx="50" cy="50" r="35.5" fill="none" stroke="#F7B801" stroke-width="2.4"/><line x1="86.20" y1="50.00" x2="91.20" y2="50.00" stroke="#F5F5F0" stroke-width="1.5"/><line x1="84.97" y1="59.37" x2="89.80" y2="60.66" stroke="#F5F5F0" stroke-width="1.5"/><line x1="81.35" y1="68.10" x2="85.68" y2="70.60" stroke="#F5F5F0" stroke-width="1.5"/><line x1="75.60" y1="75.60" x2="79.13" y2="79.13" stroke="#F5F5F0" stroke-width="1.5"/><line x1="68.10" y1="81.35" x2="70.60" y2="85.68" stroke="#F5F5F0" stroke-width="1.5"/><line x1="59.37" y1="84.97" x2="60.66" y2="89.80" stroke="#F5F5F0" stroke-width="1.5"/><line x1="50.00" y1="86.20" x2="50.00" y2="91.20" stroke="#F5F5F0" stroke-width="1.5"/><line x1="40.63" y1="84.97" x2="39.34" y2="89.80" stroke="#F5F5F0" stroke-width="1.5"/><line x1="31.90" y1="81.35" x2="29.40" y2="85.68" stroke="#F5F5F0" stroke-width="1.5"/><line x1="24.40" y1="75.60" x2="20.87" y2="79.13" stroke="#F5F5F0" stroke-width="1.5"/><line x1="18.65" y1="68.10" x2="14.32" y2="70.60" stroke="#F5F5F0" stroke-width="1.5"/><line x1="15.03" y1="59.37" x2="10.20" y2="60.66" stroke="#F5F5F0" stroke-width="1.5"/><line x1="13.80" y1="50.00" x2="8.80" y2="50.00" stroke="#F5F5F0" stroke-width="1.5"/><line x1="15.03" y1="40.63" x2="10.20" y2="39.34" stroke="#F5F5F0" stroke-width="1.5"/><line x1="18.65" y1="31.90" x2="14.32" y2="29.40" stroke="#F5F5F0" stroke-width="1.5"/><line x1="24.40" y1="24.40" x2="20.87" y2="20.87" stroke="#F5F5F0" stroke-width="1.5"/><line x1="31.90" y1="18.65" x2="29.40" y2="14.32" stroke="#F5F5F0" stroke-width="1.5"/><line x1="40.63" y1="15.03" x2="39.34" y2="10.20" stroke="#F5F5F0" stroke-width="1.5"/><line x1="50.00" y1="13.80" x2="50.00" y2="8.80" stroke="#F5F5F0" stroke-width="1.5"/><line x1="59.37" y1="15.03" x2="60.66" y2="10.20" stroke="#F5F5F0" stroke-width="1.5"/><line x1="68.10" y1="18.65" x2="70.60" y2="14.32" stroke="#F5F5F0" stroke-width="1.5"/><line x1="75.60" y1="24.40" x2="79.13" y2="20.87" stroke="#F5F5F0" stroke-width="1.5"/><line x1="81.35" y1="31.90" x2="85.68" y2="29.40" stroke="#F5F5F0" stroke-width="1.5"/><line x1="84.97" y1="40.63" x2="89.80" y2="39.34" stroke="#F5F5F0" stroke-width="1.5"/><rect x="34" y="40.5" width="32" height="4.6" rx="2.3" fill="#7FD4C1"/><rect x="34" y="47.7" width="32" height="4.6" rx="2.3" fill="#7FD4C1"/><rect x="34" y="54.9" width="32" height="4.6" rx="2.3" fill="#7FD4C1"/></g><g transform="translate(138.00,84.00) scale(0.07143,-0.07143)"><path transform="translate(0.0,0)" d="M94 0V700H381Q521 700 600.5 634.0Q680 568 680 451Q680 374 644.0 318.5Q608 263 541.5 233.5Q475 204 382 204H166L224 263V0ZM552 0 375 254H514L692 0ZM224 249 166 311H376Q462 311 505.5 348.0Q549 385 549 451Q549 518 505.5 554.0Q462 590 376 590H166L224 654Z" fill="#F5F5F0"/><path transform="translate(753.0,0)" d="M333 -7Q244 -7 177.5 28.5Q111 64 74.5 126.0Q38 188 38 267Q38 347 73.5 408.5Q109 470 171.5 505.0Q234 540 314 540Q392 540 453.0 506.0Q514 472 549.0 410.0Q584 348 584 264Q584 256 583.5 246.0Q583 236 582 227H137V310H516L467 284Q468 330 448.0 365.0Q428 400 393.5 420.0Q359 440 314 440Q268 440 233.5 420.0Q199 400 179.5 364.5Q160 329 160 281V261Q160 213 182.0 176.0Q204 139 244.0 119.0Q284 99 336 99Q381 99 417.0 113.0Q453 127 481 157L548 80Q512 38 457.5 15.5Q403 -7 333 -7Z" fill="#F5F5F0"/><path transform="translate(1397.0,0)" d="M82 0V742H207V0Z" fill="#F5F5F0"/><path transform="translate(1708.0,0)" d="M82 0V534H207V0ZM145 622Q110 622 87.5 644.0Q65 666 65 697Q65 729 87.5 750.5Q110 772 145 772Q180 772 202.5 751.5Q225 731 225 700Q225 667 203.0 644.5Q181 622 145 622Z" fill="#F5F5F0"/><path transform="translate(2019.0,0)" d="M411 0V108L404 131V320Q404 375 371.0 405.5Q338 436 271 436Q226 436 182.5 422.0Q139 408 109 383L60 474Q103 507 162.5 523.5Q222 540 286 540Q402 540 465.5 484.5Q529 429 529 313V0ZM243 -7Q183 -7 138.0 13.5Q93 34 68.5 70.5Q44 107 44 153Q44 198 65.5 234.0Q87 270 136.0 291.0Q185 312 266 312H421V229H275Q211 229 189.0 208.5Q167 188 167 158Q167 124 194.0 104.0Q221 84 269 84Q315 84 351.5 105.0Q388 126 404 167L425 92Q407 45 360.5 19.0Q314 -7 243 -7Z" fill="#F5F5F0"/><path transform="translate(2648.0,0)" d="M82 0V534H201V390L180 434Q208 485 261.5 512.5Q315 540 385 540Q449 540 499.5 515.0Q550 490 579.0 438.5Q608 387 608 306V0H483V290Q483 361 449.5 396.0Q416 431 356 431Q312 431 278.0 413.0Q244 395 225.5 359.5Q207 324 207 270V0Z" fill="#F5F5F0"/></g></svg>